ISO-10303-21;
HEADER;
/* Generated by software containing ST-Developer
 * from STEP Tools, Inc. (www.steptools.com) 
 */

FILE_DESCRIPTION(
/* description */ (''),
/* implementation_level */ '2;1');

FILE_NAME(
/* name */ 'Housing.step',
/* time_stamp */ '2023-12-04T07:22:25+01:00',
/* author */ (''),
/* organization */ (''),
/* preprocessor_version */ 'ST-DEVELOPER v20',
/* originating_system */ 'Autodesk Translation Framework v12.14.0.127',

/* authorisation */ '');

FILE_SCHEMA (('AUTOMOTIVE_DESIGN { 1 0 10303 214 3 1 1 }'));
ENDSEC;

DATA;
#10=MECHANICAL_DESIGN_GEOMETRIC_PRESENTATION_REPRESENTATION('',(#13),#855);
#11=SHAPE_REPRESENTATION_RELATIONSHIP('SRR','None',#862,#12);
#12=ADVANCED_BREP_SHAPE_REPRESENTATION('',(#14),#854);
#13=STYLED_ITEM('',(#871),#14);
#14=MANIFOLD_SOLID_BREP('Body1',#491);
#15=FACE_BOUND('',#104,.T.);
#16=FACE_BOUND('',#114,.T.);
#17=FACE_BOUND('',#127,.T.);
#18=FACE_BOUND('',#130,.T.);
#19=FACE_BOUND('',#133,.T.);
#20=FACE_BOUND('',#134,.T.);
#21=FACE_BOUND('',#135,.T.);
#22=FACE_BOUND('',#136,.T.);
#23=FACE_BOUND('',#137,.T.);
#24=FACE_BOUND('',#141,.T.);
#25=FACE_BOUND('',#144,.T.);
#26=FACE_BOUND('',#145,.T.);
#27=FACE_BOUND('',#146,.T.);
#28=FACE_BOUND('',#147,.T.);
#29=FACE_BOUND('',#148,.T.);
#30=CIRCLE('',#508,20.5);
#31=CIRCLE('',#509,20.5);
#32=CIRCLE('',#510,20.5);
#33=CIRCLE('',#511,20.5);
#34=CIRCLE('',#513,3.50000000000001);
#35=CIRCLE('',#514,3.50000000000001);
#36=CIRCLE('',#517,3.50000000000001);
#37=CIRCLE('',#518,3.50000000000001);
#38=CIRCLE('',#521,3.50000000000001);
#39=CIRCLE('',#522,3.50000000000001);
#40=CIRCLE('',#525,3.5);
#41=CIRCLE('',#526,3.5);
#42=CIRCLE('',#529,18.5);
#43=CIRCLE('',#530,7.5);
#44=CIRCLE('',#532,7.5);
#45=CIRCLE('',#534,3.49999999999998);
#46=CIRCLE('',#535,3.49999999999998);
#47=CIRCLE('',#538,3.49999999999998);
#48=CIRCLE('',#539,3.49999999999998);
#49=CIRCLE('',#542,3.50000000000001);
#50=CIRCLE('',#543,3.50000000000001);
#51=CIRCLE('',#546,3.50000000000001);
#52=CIRCLE('',#547,3.50000000000001);
#53=CIRCLE('',#553,18.5);
#54=CIRCLE('',#555,36.575);
#55=CIRCLE('',#557,36.575);
#56=CYLINDRICAL_SURFACE('',#507,20.5);
#57=CYLINDRICAL_SURFACE('',#512,3.50000000000001);
#58=CYLINDRICAL_SURFACE('',#516,3.50000000000001);
#59=CYLINDRICAL_SURFACE('',#520,3.50000000000001);
#60=CYLINDRICAL_SURFACE('',#524,3.5);
#61=CYLINDRICAL_SURFACE('',#531,7.5);
#62=CYLINDRICAL_SURFACE('',#533,3.49999999999998);
#63=CYLINDRICAL_SURFACE('',#537,3.49999999999998);
#64=CYLINDRICAL_SURFACE('',#541,3.50000000000001);
#65=CYLINDRICAL_SURFACE('',#545,3.50000000000001);
#66=CYLINDRICAL_SURFACE('',#552,18.5);
#67=CYLINDRICAL_SURFACE('',#556,36.575);
#68=FACE_OUTER_BOUND('',#101,.T.);
#69=FACE_OUTER_BOUND('',#102,.T.);
#70=FACE_OUTER_BOUND('',#103,.T.);
#71=FACE_OUTER_BOUND('',#105,.T.);
#72=FACE_OUTER_BOUND('',#106,.T.);
#73=FACE_OUTER_BOUND('',#107,.T.);
#74=FACE_OUTER_BOUND('',#108,.T.);
#75=FACE_OUTER_BOUND('',#109,.T.);
#76=FACE_OUTER_BOUND('',#110,.T.);
#77=FACE_OUTER_BOUND('',#111,.T.);
#78=FACE_OUTER_BOUND('',#112,.T.);
#79=FACE_OUTER_BOUND('',#113,.T.);
#80=FACE_OUTER_BOUND('',#115,.T.);
#81=FACE_OUTER_BOUND('',#116,.T.);
#82=FACE_OUTER_BOUND('',#117,.T.);
#83=FACE_OUTER_BOUND('',#118,.T.);
#84=FACE_OUTER_BOUND('',#119,.T.);
#85=FACE_OUTER_BOUND('',#120,.T.);
#86=FACE_OUTER_BOUND('',#121,.T.);
#87=FACE_OUTER_BOUND('',#122,.T.);
#88=FACE_OUTER_BOUND('',#123,.T.);
#89=FACE_OUTER_BOUND('',#124,.T.);
#90=FACE_OUTER_BOUND('',#125,.T.);
#91=FACE_OUTER_BOUND('',#126,.T.);
#92=FACE_OUTER_BOUND('',#128,.T.);
#93=FACE_OUTER_BOUND('',#129,.T.);
#94=FACE_OUTER_BOUND('',#131,.T.);
#95=FACE_OUTER_BOUND('',#132,.T.);
#96=FACE_OUTER_BOUND('',#138,.T.);
#97=FACE_OUTER_BOUND('',#139,.T.);
#98=FACE_OUTER_BOUND('',#140,.T.);
#99=FACE_OUTER_BOUND('',#142,.T.);
#100=FACE_OUTER_BOUND('',#143,.T.);
#101=EDGE_LOOP('',(#317,#318,#319,#320));
#102=EDGE_LOOP('',(#321,#322,#323,#324));
#103=EDGE_LOOP('',(#325,#326,#327,#328));
#104=EDGE_LOOP('',(#329,#330,#331,#332));
#105=EDGE_LOOP('',(#333,#334,#335,#336));
#106=EDGE_LOOP('',(#337));
#107=EDGE_LOOP('',(#338,#339,#340,#341));
#108=EDGE_LOOP('',(#342));
#109=EDGE_LOOP('',(#343,#344,#345,#346));
#110=EDGE_LOOP('',(#347));
#111=EDGE_LOOP('',(#348,#349,#350,#351));
#112=EDGE_LOOP('',(#352));
#113=EDGE_LOOP('',(#353));
#114=EDGE_LOOP('',(#354));
#115=EDGE_LOOP('',(#355,#356,#357,#358));
#116=EDGE_LOOP('',(#359,#360,#361,#362));
#117=EDGE_LOOP('',(#363));
#118=EDGE_LOOP('',(#364,#365,#366,#367));
#119=EDGE_LOOP('',(#368));
#120=EDGE_LOOP('',(#369,#370,#371,#372));
#121=EDGE_LOOP('',(#373));
#122=EDGE_LOOP('',(#374,#375,#376,#377));
#123=EDGE_LOOP('',(#378));
#124=EDGE_LOOP('',(#379,#380,#381,#382));
#125=EDGE_LOOP('',(#383,#384,#385,#386));
#126=EDGE_LOOP('',(#387));
#127=EDGE_LOOP('',(#388));
#128=EDGE_LOOP('',(#389,#390,#391,#392));
#129=EDGE_LOOP('',(#393));
#130=EDGE_LOOP('',(#394));
#131=EDGE_LOOP('',(#395,#396,#397,#398));
#132=EDGE_LOOP('',(#399,#400,#401,#402));
#133=EDGE_LOOP('',(#403));
#134=EDGE_LOOP('',(#404));
#135=EDGE_LOOP('',(#405));
#136=EDGE_LOOP('',(#406));
#137=EDGE_LOOP('',(#407));
#138=EDGE_LOOP('',(#408,#409,#410,#411));
#139=EDGE_LOOP('',(#412,#413,#414,#415));
#140=EDGE_LOOP('',(#416,#417,#418,#419));
#141=EDGE_LOOP('',(#420,#421,#422,#423));
#142=EDGE_LOOP('',(#424,#425,#426,#427));
#143=EDGE_LOOP('',(#428,#429,#430,#431));
#144=EDGE_LOOP('',(#432));
#145=EDGE_LOOP('',(#433));
#146=EDGE_LOOP('',(#434));
#147=EDGE_LOOP('',(#435));
#148=EDGE_LOOP('',(#436));
#149=LINE('',#722,#183);
#150=LINE('',#724,#184);
#151=LINE('',#726,#185);
#152=LINE('',#727,#186);
#153=LINE('',#731,#187);
#154=LINE('',#733,#188);
#155=LINE('',#735,#189);
#156=LINE('',#736,#190);
#157=LINE('',#741,#191);
#158=LINE('',#749,#192);
#159=LINE('',#756,#193);
#160=LINE('',#763,#194);
#161=LINE('',#770,#195);
#162=LINE('',#780,#196);
#163=LINE('',#786,#197);
#164=LINE('',#793,#198);
#165=LINE('',#800,#199);
#166=LINE('',#807,#200);
#167=LINE('',#811,#201);
#168=LINE('',#813,#202);
#169=LINE('',#818,#203);
#170=LINE('',#825,#204);
#171=LINE('',#829,#205);
#172=LINE('',#831,#206);
#173=LINE('',#833,#207);
#174=LINE('',#834,#208);
#175=LINE('',#837,#209);
#176=LINE('',#839,#210);
#177=LINE('',#840,#211);
#178=LINE('',#843,#212);
#179=LINE('',#844,#213);
#180=LINE('',#847,#214);
#181=LINE('',#848,#215);
#182=LINE('',#850,#216);
#183=VECTOR('',#568,10.);
#184=VECTOR('',#569,10.);
#185=VECTOR('',#570,10.);
#186=VECTOR('',#571,10.);
#187=VECTOR('',#574,10.);
#188=VECTOR('',#575,10.);
#189=VECTOR('',#576,10.);
#190=VECTOR('',#577,10.);
#191=VECTOR('',#582,20.5);
#192=VECTOR('',#593,3.50000000000001);
#193=VECTOR('',#602,3.50000000000001);
#194=VECTOR('',#611,3.50000000000001);
#195=VECTOR('',#620,3.5);
#196=VECTOR('',#633,7.5);
#197=VECTOR('',#640,3.49999999999998);
#198=VECTOR('',#649,3.49999999999998);
#199=VECTOR('',#658,3.50000000000001);
#200=VECTOR('',#667,3.50000000000001);
#201=VECTOR('',#674,10.);
#202=VECTOR('',#677,10.);
#203=VECTOR('',#684,18.5);
#204=VECTOR('',#693,36.575);
#205=VECTOR('',#696,10.);
#206=VECTOR('',#697,10.);
#207=VECTOR('',#698,10.);
#208=VECTOR('',#699,10.);
#209=VECTOR('',#702,1000.);
#210=VECTOR('',#703,1000.);
#211=VECTOR('',#704,1000.);
#212=VECTOR('',#707,1000.);
#213=VECTOR('',#708,1000.);
#214=VECTOR('',#711,1000.);
#215=VECTOR('',#712,1000.);
#216=VECTOR('',#715,1000.);
#217=VERTEX_POINT('',#720);
#218=VERTEX_POINT('',#721);
#219=VERTEX_POINT('',#723);
#220=VERTEX_POINT('',#725);
#221=VERTEX_POINT('',#729);
#222=VERTEX_POINT('',#730);
#223=VERTEX_POINT('',#732);
#224=VERTEX_POINT('',#734);
#225=VERTEX_POINT('',#738);
#226=VERTEX_POINT('',#740);
#227=VERTEX_POINT('',#746);
#228=VERTEX_POINT('',#748);
#229=VERTEX_POINT('',#753);
#230=VERTEX_POINT('',#755);
#231=VERTEX_POINT('',#760);
#232=VERTEX_POINT('',#762);
#233=VERTEX_POINT('',#767);
#234=VERTEX_POINT('',#769);
#235=VERTEX_POINT('',#774);
#236=VERTEX_POINT('',#776);
#237=VERTEX_POINT('',#779);
#238=VERTEX_POINT('',#783);
#239=VERTEX_POINT('',#785);
#240=VERTEX_POINT('',#790);
#241=VERTEX_POINT('',#792);
#242=VERTEX_POINT('',#797);
#243=VERTEX_POINT('',#799);
#244=VERTEX_POINT('',#804);
#245=VERTEX_POINT('',#806);
#246=VERTEX_POINT('',#816);
#247=VERTEX_POINT('',#820);
#248=VERTEX_POINT('',#823);
#249=VERTEX_POINT('',#827);
#250=VERTEX_POINT('',#828);
#251=VERTEX_POINT('',#830);
#252=VERTEX_POINT('',#832);
#253=VERTEX_POINT('',#836);
#254=VERTEX_POINT('',#838);
#255=VERTEX_POINT('',#842);
#256=VERTEX_POINT('',#846);
#257=EDGE_CURVE('',#217,#218,#149,.T.);
#258=EDGE_CURVE('',#217,#219,#150,.T.);
#259=EDGE_CURVE('',#220,#219,#151,.T.);
#260=EDGE_CURVE('',#218,#220,#152,.T.);
#261=EDGE_CURVE('',#221,#222,#153,.T.);
#262=EDGE_CURVE('',#223,#221,#154,.T.);
#263=EDGE_CURVE('',#224,#223,#155,.T.);
#264=EDGE_CURVE('',#224,#222,#156,.T.);
#265=EDGE_CURVE('',#225,#225,#30,.T.);
#266=EDGE_CURVE('',#225,#226,#157,.T.);
#267=EDGE_CURVE('',#226,#226,#31,.T.);
#268=EDGE_CURVE('',#218,#224,#32,.T.);
#269=EDGE_CURVE('',#223,#217,#33,.T.);
#270=EDGE_CURVE('',#227,#227,#34,.T.);
#271=EDGE_CURVE('',#227,#228,#158,.T.);
#272=EDGE_CURVE('',#228,#228,#35,.T.);
#273=EDGE_CURVE('',#229,#229,#36,.T.);
#274=EDGE_CURVE('',#229,#230,#159,.T.);
#275=EDGE_CURVE('',#230,#230,#37,.T.);
#276=EDGE_CURVE('',#231,#231,#38,.T.);
#277=EDGE_CURVE('',#231,#232,#160,.T.);
#278=EDGE_CURVE('',#232,#232,#39,.T.);
#279=EDGE_CURVE('',#233,#233,#40,.T.);
#280=EDGE_CURVE('',#233,#234,#161,.T.);
#281=EDGE_CURVE('',#234,#234,#41,.T.);
#282=EDGE_CURVE('',#235,#235,#42,.T.);
#283=EDGE_CURVE('',#236,#236,#43,.T.);
#284=EDGE_CURVE('',#236,#237,#162,.T.);
#285=EDGE_CURVE('',#237,#237,#44,.T.);
#286=EDGE_CURVE('',#238,#238,#45,.T.);
#287=EDGE_CURVE('',#238,#239,#163,.T.);
#288=EDGE_CURVE('',#239,#239,#46,.T.);
#289=EDGE_CURVE('',#240,#240,#47,.T.);
#290=EDGE_CURVE('',#240,#241,#164,.T.);
#291=EDGE_CURVE('',#241,#241,#48,.T.);
#292=EDGE_CURVE('',#242,#242,#49,.T.);
#293=EDGE_CURVE('',#242,#243,#165,.T.);
#294=EDGE_CURVE('',#243,#243,#50,.T.);
#295=EDGE_CURVE('',#244,#244,#51,.T.);
#296=EDGE_CURVE('',#244,#245,#166,.T.);
#297=EDGE_CURVE('',#245,#245,#52,.T.);
#298=EDGE_CURVE('',#222,#220,#167,.T.);
#299=EDGE_CURVE('',#219,#221,#168,.T.);
#300=EDGE_CURVE('',#246,#246,#53,.T.);
#301=EDGE_CURVE('',#246,#235,#169,.T.);
#302=EDGE_CURVE('',#247,#247,#54,.T.);
#303=EDGE_CURVE('',#248,#248,#55,.T.);
#304=EDGE_CURVE('',#248,#247,#170,.T.);
#305=EDGE_CURVE('',#249,#250,#171,.T.);
#306=EDGE_CURVE('',#251,#249,#172,.T.);
#307=EDGE_CURVE('',#252,#251,#173,.T.);
#308=EDGE_CURVE('',#250,#252,#174,.T.);
#309=EDGE_CURVE('',#252,#253,#175,.T.);
#310=EDGE_CURVE('',#253,#254,#176,.T.);
#311=EDGE_CURVE('',#250,#254,#177,.T.);
#312=EDGE_CURVE('',#251,#255,#178,.T.);
#313=EDGE_CURVE('',#255,#253,#179,.T.);
#314=EDGE_CURVE('',#254,#256,#180,.T.);
#315=EDGE_CURVE('',#249,#256,#181,.T.);
#316=EDGE_CURVE('',#256,#255,#182,.T.);
#317=ORIENTED_EDGE('',*,*,#257,.F.);
#318=ORIENTED_EDGE('',*,*,#258,.T.);
#319=ORIENTED_EDGE('',*,*,#259,.F.);
#320=ORIENTED_EDGE('',*,*,#260,.F.);
#321=ORIENTED_EDGE('',*,*,#261,.F.);
#322=ORIENTED_EDGE('',*,*,#262,.F.);
#323=ORIENTED_EDGE('',*,*,#263,.F.);
#324=ORIENTED_EDGE('',*,*,#264,.T.);
#325=ORIENTED_EDGE('',*,*,#265,.F.);
#326=ORIENTED_EDGE('',*,*,#266,.T.);
#327=ORIENTED_EDGE('',*,*,#267,.T.);
#328=ORIENTED_EDGE('',*,*,#266,.F.);
#329=ORIENTED_EDGE('',*,*,#268,.T.);
#330=ORIENTED_EDGE('',*,*,#263,.T.);
#331=ORIENTED_EDGE('',*,*,#269,.T.);
#332=ORIENTED_EDGE('',*,*,#257,.T.);
#333=ORIENTED_EDGE('',*,*,#270,.F.);
#334=ORIENTED_EDGE('',*,*,#271,.T.);
#335=ORIENTED_EDGE('',*,*,#272,.T.);
#336=ORIENTED_EDGE('',*,*,#271,.F.);
#337=ORIENTED_EDGE('',*,*,#272,.F.);
#338=ORIENTED_EDGE('',*,*,#273,.F.);
#339=ORIENTED_EDGE('',*,*,#274,.T.);
#340=ORIENTED_EDGE('',*,*,#275,.T.);
#341=ORIENTED_EDGE('',*,*,#274,.F.);
#342=ORIENTED_EDGE('',*,*,#275,.F.);
#343=ORIENTED_EDGE('',*,*,#276,.F.);
#344=ORIENTED_EDGE('',*,*,#277,.T.);
#345=ORIENTED_EDGE('',*,*,#278,.T.);
#346=ORIENTED_EDGE('',*,*,#277,.F.);
#347=ORIENTED_EDGE('',*,*,#278,.F.);
#348=ORIENTED_EDGE('',*,*,#279,.F.);
#349=ORIENTED_EDGE('',*,*,#280,.T.);
#350=ORIENTED_EDGE('',*,*,#281,.T.);
#351=ORIENTED_EDGE('',*,*,#280,.F.);
#352=ORIENTED_EDGE('',*,*,#281,.F.);
#353=ORIENTED_EDGE('',*,*,#282,.F.);
#354=ORIENTED_EDGE('',*,*,#283,.F.);
#355=ORIENTED_EDGE('',*,*,#283,.T.);
#356=ORIENTED_EDGE('',*,*,#284,.T.);
#357=ORIENTED_EDGE('',*,*,#285,.F.);
#358=ORIENTED_EDGE('',*,*,#284,.F.);
#359=ORIENTED_EDGE('',*,*,#286,.F.);
#360=ORIENTED_EDGE('',*,*,#287,.T.);
#361=ORIENTED_EDGE('',*,*,#288,.T.);
#362=ORIENTED_EDGE('',*,*,#287,.F.);
#363=ORIENTED_EDGE('',*,*,#288,.F.);
#364=ORIENTED_EDGE('',*,*,#289,.F.);
#365=ORIENTED_EDGE('',*,*,#290,.T.);
#366=ORIENTED_EDGE('',*,*,#291,.T.);
#367=ORIENTED_EDGE('',*,*,#290,.F.);
#368=ORIENTED_EDGE('',*,*,#291,.F.);
#369=ORIENTED_EDGE('',*,*,#292,.F.);
#370=ORIENTED_EDGE('',*,*,#293,.T.);
#371=ORIENTED_EDGE('',*,*,#294,.T.);
#372=ORIENTED_EDGE('',*,*,#293,.F.);
#373=ORIENTED_EDGE('',*,*,#294,.F.);
#374=ORIENTED_EDGE('',*,*,#295,.F.);
#375=ORIENTED_EDGE('',*,*,#296,.T.);
#376=ORIENTED_EDGE('',*,*,#297,.T.);
#377=ORIENTED_EDGE('',*,*,#296,.F.);
#378=ORIENTED_EDGE('',*,*,#297,.F.);
#379=ORIENTED_EDGE('',*,*,#268,.F.);
#380=ORIENTED_EDGE('',*,*,#260,.T.);
#381=ORIENTED_EDGE('',*,*,#298,.F.);
#382=ORIENTED_EDGE('',*,*,#264,.F.);
#383=ORIENTED_EDGE('',*,*,#269,.F.);
#384=ORIENTED_EDGE('',*,*,#262,.T.);
#385=ORIENTED_EDGE('',*,*,#299,.F.);
#386=ORIENTED_EDGE('',*,*,#258,.F.);
#387=ORIENTED_EDGE('',*,*,#267,.F.);
#388=ORIENTED_EDGE('',*,*,#285,.T.);
#389=ORIENTED_EDGE('',*,*,#300,.F.);
#390=ORIENTED_EDGE('',*,*,#301,.T.);
#391=ORIENTED_EDGE('',*,*,#282,.T.);
#392=ORIENTED_EDGE('',*,*,#301,.F.);
#393=ORIENTED_EDGE('',*,*,#302,.F.);
#394=ORIENTED_EDGE('',*,*,#265,.T.);
#395=ORIENTED_EDGE('',*,*,#303,.T.);
#396=ORIENTED_EDGE('',*,*,#304,.T.);
#397=ORIENTED_EDGE('',*,*,#302,.T.);
#398=ORIENTED_EDGE('',*,*,#304,.F.);
#399=ORIENTED_EDGE('',*,*,#305,.F.);
#400=ORIENTED_EDGE('',*,*,#306,.F.);
#401=ORIENTED_EDGE('',*,*,#307,.F.);
#402=ORIENTED_EDGE('',*,*,#308,.F.);
#403=ORIENTED_EDGE('',*,*,#286,.T.);
#404=ORIENTED_EDGE('',*,*,#289,.T.);
#405=ORIENTED_EDGE('',*,*,#292,.T.);
#406=ORIENTED_EDGE('',*,*,#295,.T.);
#407=ORIENTED_EDGE('',*,*,#303,.F.);
#408=ORIENTED_EDGE('',*,*,#308,.T.);
#409=ORIENTED_EDGE('',*,*,#309,.T.);
#410=ORIENTED_EDGE('',*,*,#310,.T.);
#411=ORIENTED_EDGE('',*,*,#311,.F.);
#412=ORIENTED_EDGE('',*,*,#307,.T.);
#413=ORIENTED_EDGE('',*,*,#312,.T.);
#414=ORIENTED_EDGE('',*,*,#313,.T.);
#415=ORIENTED_EDGE('',*,*,#309,.F.);
#416=ORIENTED_EDGE('',*,*,#305,.T.);
#417=ORIENTED_EDGE('',*,*,#311,.T.);
#418=ORIENTED_EDGE('',*,*,#314,.T.);
#419=ORIENTED_EDGE('',*,*,#315,.F.);
#420=ORIENTED_EDGE('',*,*,#298,.T.);
#421=ORIENTED_EDGE('',*,*,#259,.T.);
#422=ORIENTED_EDGE('',*,*,#299,.T.);
#423=ORIENTED_EDGE('',*,*,#261,.T.);
#424=ORIENTED_EDGE('',*,*,#306,.T.);
#425=ORIENTED_EDGE('',*,*,#315,.T.);
#426=ORIENTED_EDGE('',*,*,#316,.T.);
#427=ORIENTED_EDGE('',*,*,#312,.F.);
#428=ORIENTED_EDGE('',*,*,#314,.F.);
#429=ORIENTED_EDGE('',*,*,#310,.F.);
#430=ORIENTED_EDGE('',*,*,#313,.F.);
#431=ORIENTED_EDGE('',*,*,#316,.F.);
#432=ORIENTED_EDGE('',*,*,#270,.T.);
#433=ORIENTED_EDGE('',*,*,#273,.T.);
#434=ORIENTED_EDGE('',*,*,#276,.T.);
#435=ORIENTED_EDGE('',*,*,#279,.T.);
#436=ORIENTED_EDGE('',*,*,#300,.T.);
#437=PLANE('',#505);
#438=PLANE('',#506);
#439=PLANE('',#515);
#440=PLANE('',#519);
#441=PLANE('',#523);
#442=PLANE('',#527);
#443=PLANE('',#528);
#444=PLANE('',#536);
#445=PLANE('',#540);
#446=PLANE('',#544);
#447=PLANE('',#548);
#448=PLANE('',#549);
#449=PLANE('',#550);
#450=PLANE('',#551);
#451=PLANE('',#554);
#452=PLANE('',#558);
#453=PLANE('',#559);
#454=PLANE('',#560);
#455=PLANE('',#561);
#456=PLANE('',#562);
#457=PLANE('',#563);
#458=ADVANCED_FACE('',(#68),#437,.F.);
#459=ADVANCED_FACE('',(#69),#438,.F.);
#460=ADVANCED_FACE('',(#70,#15),#56,.F.);
#461=ADVANCED_FACE('',(#71),#57,.F.);
#462=ADVANCED_FACE('',(#72),#439,.T.);
#463=ADVANCED_FACE('',(#73),#58,.F.);
#464=ADVANCED_FACE('',(#74),#440,.T.);
#465=ADVANCED_FACE('',(#75),#59,.F.);
#466=ADVANCED_FACE('',(#76),#441,.T.);
#467=ADVANCED_FACE('',(#77),#60,.F.);
#468=ADVANCED_FACE('',(#78),#442,.T.);
#469=ADVANCED_FACE('',(#79,#16),#443,.T.);
#470=ADVANCED_FACE('',(#80),#61,.F.);
#471=ADVANCED_FACE('',(#81),#62,.F.);
#472=ADVANCED_FACE('',(#82),#444,.T.);
#473=ADVANCED_FACE('',(#83),#63,.F.);
#474=ADVANCED_FACE('',(#84),#445,.T.);
#475=ADVANCED_FACE('',(#85),#64,.F.);
#476=ADVANCED_FACE('',(#86),#446,.T.);
#477=ADVANCED_FACE('',(#87),#65,.F.);
#478=ADVANCED_FACE('',(#88),#447,.T.);
#479=ADVANCED_FACE('',(#89),#448,.F.);
#480=ADVANCED_FACE('',(#90),#449,.F.);
#481=ADVANCED_FACE('',(#91,#17),#450,.T.);
#482=ADVANCED_FACE('',(#92),#66,.F.);
#483=ADVANCED_FACE('',(#93,#18),#451,.T.);
#484=ADVANCED_FACE('',(#94),#67,.F.);
#485=ADVANCED_FACE('',(#95,#19,#20,#21,#22,#23),#452,.T.);
#486=ADVANCED_FACE('',(#96),#453,.F.);
#487=ADVANCED_FACE('',(#97),#454,.F.);
#488=ADVANCED_FACE('',(#98,#24),#455,.F.);
#489=ADVANCED_FACE('',(#99),#456,.F.);
#490=ADVANCED_FACE('',(#100,#25,#26,#27,#28,#29),#457,.F.);
#491=CLOSED_SHELL('',(#458,#459,#460,#461,#462,#463,#464,#465,#466,#467,
#468,#469,#470,#471,#472,#473,#474,#475,#476,#477,#478,#479,#480,#481,#482,
#483,#484,#485,#486,#487,#488,#489,#490));
#492=DERIVED_UNIT_ELEMENT(#494,1.);
#493=DERIVED_UNIT_ELEMENT(#857,-3.);
#494=(
MASS_UNIT()
NAMED_UNIT(*)
SI_UNIT(.KILO.,.GRAM.)
);
#495=DERIVED_UNIT((#492,#493));
#496=MEASURE_REPRESENTATION_ITEM('density measure',
POSITIVE_RATIO_MEASURE(7850.),#495);
#497=PROPERTY_DEFINITION_REPRESENTATION(#502,#499);
#498=PROPERTY_DEFINITION_REPRESENTATION(#503,#500);
#499=REPRESENTATION('material name',(#501),#854);
#500=REPRESENTATION('density',(#496),#854);
#501=DESCRIPTIVE_REPRESENTATION_ITEM('Steel','Steel');
#502=PROPERTY_DEFINITION('material property','material name',#864);
#503=PROPERTY_DEFINITION('material property','density of part',#864);
#504=AXIS2_PLACEMENT_3D('',#718,#564,#565);
#505=AXIS2_PLACEMENT_3D('',#719,#566,#567);
#506=AXIS2_PLACEMENT_3D('',#728,#572,#573);
#507=AXIS2_PLACEMENT_3D('',#737,#578,#579);
#508=AXIS2_PLACEMENT_3D('',#739,#580,#581);
#509=AXIS2_PLACEMENT_3D('',#742,#583,#584);
#510=AXIS2_PLACEMENT_3D('',#743,#585,#586);
#511=AXIS2_PLACEMENT_3D('',#744,#587,#588);
#512=AXIS2_PLACEMENT_3D('',#745,#589,#590);
#513=AXIS2_PLACEMENT_3D('',#747,#591,#592);
#514=AXIS2_PLACEMENT_3D('',#750,#594,#595);
#515=AXIS2_PLACEMENT_3D('',#751,#596,#597);
#516=AXIS2_PLACEMENT_3D('',#752,#598,#599);
#517=AXIS2_PLACEMENT_3D('',#754,#600,#601);
#518=AXIS2_PLACEMENT_3D('',#757,#603,#604);
#519=AXIS2_PLACEMENT_3D('',#758,#605,#606);
#520=AXIS2_PLACEMENT_3D('',#759,#607,#608);
#521=AXIS2_PLACEMENT_3D('',#761,#609,#610);
#522=AXIS2_PLACEMENT_3D('',#764,#612,#613);
#523=AXIS2_PLACEMENT_3D('',#765,#614,#615);
#524=AXIS2_PLACEMENT_3D('',#766,#616,#617);
#525=AXIS2_PLACEMENT_3D('',#768,#618,#619);
#526=AXIS2_PLACEMENT_3D('',#771,#621,#622);
#527=AXIS2_PLACEMENT_3D('',#772,#623,#624);
#528=AXIS2_PLACEMENT_3D('',#773,#625,#626);
#529=AXIS2_PLACEMENT_3D('',#775,#627,#628);
#530=AXIS2_PLACEMENT_3D('',#777,#629,#630);
#531=AXIS2_PLACEMENT_3D('',#778,#631,#632);
#532=AXIS2_PLACEMENT_3D('',#781,#634,#635);
#533=AXIS2_PLACEMENT_3D('',#782,#636,#637);
#534=AXIS2_PLACEMENT_3D('',#784,#638,#639);
#535=AXIS2_PLACEMENT_3D('',#787,#641,#642);
#536=AXIS2_PLACEMENT_3D('',#788,#643,#644);
#537=AXIS2_PLACEMENT_3D('',#789,#645,#646);
#538=AXIS2_PLACEMENT_3D('',#791,#647,#648);
#539=AXIS2_PLACEMENT_3D('',#794,#650,#651);
#540=AXIS2_PLACEMENT_3D('',#795,#652,#653);
#541=AXIS2_PLACEMENT_3D('',#796,#654,#655);
#542=AXIS2_PLACEMENT_3D('',#798,#656,#657);
#543=AXIS2_PLACEMENT_3D('',#801,#659,#660);
#544=AXIS2_PLACEMENT_3D('',#802,#661,#662);
#545=AXIS2_PLACEMENT_3D('',#803,#663,#664);
#546=AXIS2_PLACEMENT_3D('',#805,#665,#666);
#547=AXIS2_PLACEMENT_3D('',#808,#668,#669);
#548=AXIS2_PLACEMENT_3D('',#809,#670,#671);
#549=AXIS2_PLACEMENT_3D('',#810,#672,#673);
#550=AXIS2_PLACEMENT_3D('',#812,#675,#676);
#551=AXIS2_PLACEMENT_3D('',#814,#678,#679);
#552=AXIS2_PLACEMENT_3D('',#815,#680,#681);
#553=AXIS2_PLACEMENT_3D('',#817,#682,#683);
#554=AXIS2_PLACEMENT_3D('',#819,#685,#686);
#555=AXIS2_PLACEMENT_3D('',#821,#687,#688);
#556=AXIS2_PLACEMENT_3D('',#822,#689,#690);
#557=AXIS2_PLACEMENT_3D('',#824,#691,#692);
#558=AXIS2_PLACEMENT_3D('',#826,#694,#695);
#559=AXIS2_PLACEMENT_3D('',#835,#700,#701);
#560=AXIS2_PLACEMENT_3D('',#841,#705,#706);
#561=AXIS2_PLACEMENT_3D('',#845,#709,#710);
#562=AXIS2_PLACEMENT_3D('',#849,#713,#714);
#563=AXIS2_PLACEMENT_3D('',#851,#716,#717);
#564=DIRECTION('axis',(0.,0.,1.));
#565=DIRECTION('refdir',(1.,0.,0.));
#566=DIRECTION('center_axis',(-1.,0.,0.));
#567=DIRECTION('ref_axis',(0.,0.,1.));
#568=DIRECTION('',(0.,0.,1.));
#569=DIRECTION('',(0.,1.,0.));
#570=DIRECTION('',(0.,0.,-1.));
#571=DIRECTION('',(0.,1.,0.));
#572=DIRECTION('center_axis',(1.,0.,0.));
#573=DIRECTION('ref_axis',(0.,0.,-1.));
#574=DIRECTION('',(0.,0.,1.));
#575=DIRECTION('',(0.,1.,0.));
#576=DIRECTION('',(0.,0.,-1.));
#577=DIRECTION('',(0.,1.,0.));
#578=DIRECTION('center_axis',(0.,0.,-1.));
#579=DIRECTION('ref_axis',(0.,1.,0.));
#580=DIRECTION('center_axis',(0.,0.,-1.));
#581=DIRECTION('ref_axis',(0.,1.,0.));
#582=DIRECTION('',(0.,0.,-1.));
#583=DIRECTION('center_axis',(0.,0.,-1.));
#584=DIRECTION('ref_axis',(0.,1.,0.));
#585=DIRECTION('center_axis',(0.,0.,-1.));
#586=DIRECTION('ref_axis',(0.,1.,0.));
#587=DIRECTION('center_axis',(0.,0.,1.));
#588=DIRECTION('ref_axis',(0.,1.,0.));
#589=DIRECTION('center_axis',(0.,0.,1.));
#590=DIRECTION('ref_axis',(0.,-1.,0.));
#591=DIRECTION('center_axis',(0.,0.,1.));
#592=DIRECTION('ref_axis',(0.,-1.,0.));
#593=DIRECTION('',(0.,0.,1.));
#594=DIRECTION('center_axis',(0.,0.,1.));
#595=DIRECTION('ref_axis',(0.,-1.,0.));
#596=DIRECTION('center_axis',(0.,0.,-1.));
#597=DIRECTION('ref_axis',(0.,-1.,0.));
#598=DIRECTION('center_axis',(0.,0.,1.));
#599=DIRECTION('ref_axis',(0.,-1.,0.));
#600=DIRECTION('center_axis',(0.,0.,1.));
#601=DIRECTION('ref_axis',(0.,-1.,0.));
#602=DIRECTION('',(0.,0.,1.));
#603=DIRECTION('center_axis',(0.,0.,1.));
#604=DIRECTION('ref_axis',(0.,-1.,0.));
#605=DIRECTION('center_axis',(0.,0.,-1.));
#606=DIRECTION('ref_axis',(0.,-1.,0.));
#607=DIRECTION('center_axis',(0.,0.,1.));
#608=DIRECTION('ref_axis',(0.,-1.,0.));
#609=DIRECTION('center_axis',(0.,0.,1.));
#610=DIRECTION('ref_axis',(0.,-1.,0.));
#611=DIRECTION('',(0.,0.,1.));
#612=DIRECTION('center_axis',(0.,0.,1.));
#613=DIRECTION('ref_axis',(0.,-1.,0.));
#614=DIRECTION('center_axis',(0.,0.,-1.));
#615=DIRECTION('ref_axis',(0.,-1.,0.));
#616=DIRECTION('center_axis',(0.,0.,1.));
#617=DIRECTION('ref_axis',(0.,-1.,0.));
#618=DIRECTION('center_axis',(0.,0.,1.));
#619=DIRECTION('ref_axis',(0.,-1.,0.));
#620=DIRECTION('',(0.,0.,1.));
#621=DIRECTION('center_axis',(0.,0.,1.));
#622=DIRECTION('ref_axis',(0.,-1.,0.));
#623=DIRECTION('center_axis',(0.,0.,-1.));
#624=DIRECTION('ref_axis',(0.,-1.,0.));
#625=DIRECTION('center_axis',(0.,0.,-1.));
#626=DIRECTION('ref_axis',(0.,-1.,0.));
#627=DIRECTION('center_axis',(0.,0.,1.));
#628=DIRECTION('ref_axis',(0.,-1.,0.));
#629=DIRECTION('center_axis',(0.,0.,-1.));
#630=DIRECTION('ref_axis',(0.,-1.,0.));
#631=DIRECTION('center_axis',(0.,0.,1.));
#632=DIRECTION('ref_axis',(0.,-1.,0.));
#633=DIRECTION('',(0.,0.,1.));
#634=DIRECTION('center_axis',(0.,0.,-1.));
#635=DIRECTION('ref_axis',(0.,-1.,0.));
#636=DIRECTION('center_axis',(0.,0.,-1.));
#637=DIRECTION('ref_axis',(-2.46519032881566E-32,1.,0.));
#638=DIRECTION('center_axis',(0.,0.,-1.));
#639=DIRECTION('ref_axis',(-2.46519032881566E-32,1.,0.));
#640=DIRECTION('',(0.,0.,-1.));
#641=DIRECTION('center_axis',(-5.3568206710057E-30,-4.77328469740068E-29,
-1.));
#642=DIRECTION('ref_axis',(-2.46519032881566E-32,1.,-4.77328469740068E-29));
#643=DIRECTION('center_axis',(5.3568206710057E-30,4.77328469740068E-29,
1.));
#644=DIRECTION('ref_axis',(-2.46519032881566E-32,1.,-4.77328469740068E-29));
#645=DIRECTION('center_axis',(0.,0.,-1.));
#646=DIRECTION('ref_axis',(-2.46519032881566E-32,1.,0.));
#647=DIRECTION('center_axis',(0.,0.,-1.));
#648=DIRECTION('ref_axis',(-2.46519032881566E-32,1.,0.));
#649=DIRECTION('',(0.,0.,-1.));
#650=DIRECTION('center_axis',(-5.3568206710057E-30,-4.77328469740068E-29,
-1.));
#651=DIRECTION('ref_axis',(-2.46519032881566E-32,1.,-4.77328469740068E-29));
#652=DIRECTION('center_axis',(5.3568206710057E-30,4.77328469740068E-29,
1.));
#653=DIRECTION('ref_axis',(-2.46519032881566E-32,1.,-4.77328469740068E-29));
#654=DIRECTION('center_axis',(0.,0.,-1.));
#655=DIRECTION('ref_axis',(-2.46519032881566E-32,1.,0.));
#656=DIRECTION('center_axis',(0.,0.,-1.));
#657=DIRECTION('ref_axis',(-2.46519032881566E-32,1.,0.));
#658=DIRECTION('',(0.,0.,-1.));
#659=DIRECTION('center_axis',(-5.3568206710057E-30,-4.77328469740068E-29,
-1.));
#660=DIRECTION('ref_axis',(-2.46519032881566E-32,1.,-4.77328469740068E-29));
#661=DIRECTION('center_axis',(5.3568206710057E-30,4.77328469740068E-29,
1.));
#662=DIRECTION('ref_axis',(-2.46519032881566E-32,1.,-4.77328469740068E-29));
#663=DIRECTION('center_axis',(0.,0.,-1.));
#664=DIRECTION('ref_axis',(-2.46519032881566E-32,1.,0.));
#665=DIRECTION('center_axis',(0.,0.,-1.));
#666=DIRECTION('ref_axis',(-2.46519032881566E-32,1.,0.));
#667=DIRECTION('',(0.,0.,-1.));
#668=DIRECTION('center_axis',(-5.3568206710057E-30,-4.77328469740068E-29,
-1.));
#669=DIRECTION('ref_axis',(-2.46519032881566E-32,1.,-4.77328469740068E-29));
#670=DIRECTION('center_axis',(5.3568206710057E-30,4.77328469740068E-29,
1.));
#671=DIRECTION('ref_axis',(-2.46519032881566E-32,1.,-4.77328469740068E-29));
#672=DIRECTION('center_axis',(0.,0.,1.));
#673=DIRECTION('ref_axis',(1.,0.,0.));
#674=DIRECTION('',(-1.,0.,0.));
#675=DIRECTION('center_axis',(0.,0.,-1.));
#676=DIRECTION('ref_axis',(-1.,0.,0.));
#677=DIRECTION('',(1.,0.,0.));
#678=DIRECTION('center_axis',(0.,0.,1.));
#679=DIRECTION('ref_axis',(0.,1.,0.));
#680=DIRECTION('center_axis',(0.,0.,1.));
#681=DIRECTION('ref_axis',(0.,-1.,0.));
#682=DIRECTION('center_axis',(0.,0.,1.));
#683=DIRECTION('ref_axis',(0.,-1.,0.));
#684=DIRECTION('',(0.,0.,1.));
#685=DIRECTION('center_axis',(0.,0.,1.));
#686=DIRECTION('ref_axis',(0.,1.,0.));
#687=DIRECTION('center_axis',(0.,0.,-1.));
#688=DIRECTION('ref_axis',(0.,1.,0.));
#689=DIRECTION('center_axis',(0.,0.,-1.));
#690=DIRECTION('ref_axis',(0.,1.,0.));
#691=DIRECTION('center_axis',(0.,0.,1.));
#692=DIRECTION('ref_axis',(0.,1.,0.));
#693=DIRECTION('',(0.,0.,-1.));
#694=DIRECTION('center_axis',(0.,0.,1.));
#695=DIRECTION('ref_axis',(1.,0.,0.));
#696=DIRECTION('',(1.,0.,0.));
#697=DIRECTION('',(0.,1.,0.));
#698=DIRECTION('',(-1.,0.,0.));
#699=DIRECTION('',(0.,-1.,0.));
#700=DIRECTION('center_axis',(-1.,0.,0.));
#701=DIRECTION('ref_axis',(0.,0.,1.));
#702=DIRECTION('',(0.,0.,-1.));
#703=DIRECTION('',(0.,1.,0.));
#704=DIRECTION('',(0.,0.,-1.));
#705=DIRECTION('center_axis',(0.,1.,0.));
#706=DIRECTION('ref_axis',(0.,0.,1.));
#707=DIRECTION('',(0.,0.,-1.));
#708=DIRECTION('',(1.,0.,0.));
#709=DIRECTION('center_axis',(0.,-1.,0.));
#710=DIRECTION('ref_axis',(0.,0.,-1.));
#711=DIRECTION('',(-1.,0.,0.));
#712=DIRECTION('',(0.,0.,-1.));
#713=DIRECTION('center_axis',(1.,0.,0.));
#714=DIRECTION('ref_axis',(0.,0.,-1.));
#715=DIRECTION('',(0.,-1.,0.));
#716=DIRECTION('center_axis',(0.,0.,1.));
#717=DIRECTION('ref_axis',(1.,0.,0.));
#718=CARTESIAN_POINT('',(0.,0.,0.));
#719=CARTESIAN_POINT('Origin',(-312.604600328338,194.580789289516,19.9307979365429));
#720=CARTESIAN_POINT('',(-312.604600328338,214.183085073428,19.9307979365429));
#721=CARTESIAN_POINT('',(-312.604600328338,214.183085073428,69.9307979365429));
#722=CARTESIAN_POINT('',(-312.604600328338,214.183085073428,81.271));
#723=CARTESIAN_POINT('',(-312.604600328338,237.580789289516,19.9307979365429));
#724=CARTESIAN_POINT('',(-312.604600328338,194.580789289516,19.9307979365429));
#725=CARTESIAN_POINT('',(-312.604600328338,237.580789289516,69.9307979365429));
#726=CARTESIAN_POINT('',(-312.604600328338,237.580789289516,47.9653989682715));
#727=CARTESIAN_POINT('',(-312.604600328338,194.580789289516,69.9307979365429));
#728=CARTESIAN_POINT('Origin',(-298.604600328338,194.580789289516,69.9307979365429));
#729=CARTESIAN_POINT('',(-298.604600328338,237.580789289516,19.9307979365429));
#730=CARTESIAN_POINT('',(-298.604600328338,237.580789289516,69.9307979365429));
#731=CARTESIAN_POINT('',(-298.604600328338,237.580789289516,72.9653989682715));
#732=CARTESIAN_POINT('',(-298.604600328338,199.080789289516,19.9307979365429));
#733=CARTESIAN_POINT('',(-298.604600328338,194.580789289516,19.9307979365429));
#734=CARTESIAN_POINT('',(-298.604600328338,199.080789289516,69.9307979365429));
#735=CARTESIAN_POINT('',(-298.604600328338,199.080789289516,81.271));
#736=CARTESIAN_POINT('',(-298.604600328338,194.580789289516,69.9307979365429));
#737=CARTESIAN_POINT('Origin',(-318.604600328338,194.580789289516,81.271));
#738=CARTESIAN_POINT('',(-318.604600328338,174.080789289516,81.271));
#739=CARTESIAN_POINT('Origin',(-318.604600328338,194.580789289516,81.2710059631452));
#740=CARTESIAN_POINT('',(-318.604600328338,174.080789289516,19.771));
#741=CARTESIAN_POINT('',(-318.604600328338,174.080789289516,81.271));
#742=CARTESIAN_POINT('Origin',(-318.604600328338,194.580789289516,19.771));
#743=CARTESIAN_POINT('Origin',(-318.604600328338,194.580789289516,69.9307979365429));
#744=CARTESIAN_POINT('Origin',(-318.604600328338,194.580789289516,19.9307979365429));
#745=CARTESIAN_POINT('Origin',(-353.604600328337,229.580789289516,-7.99999999999997));
#746=CARTESIAN_POINT('',(-353.604600328337,233.080789289516,0.));
#747=CARTESIAN_POINT('Origin',(-353.604600328337,229.580789289516,0.));
#748=CARTESIAN_POINT('',(-353.604600328337,233.080789289516,22.0000000000001));
#749=CARTESIAN_POINT('',(-353.604600328337,233.080789289516,-7.99999999999997));
#750=CARTESIAN_POINT('Origin',(-353.604600328337,229.580789289516,22.0000000000001));
#751=CARTESIAN_POINT('Origin',(-318.604600328337,194.580789289516,22.0000000000001));
#752=CARTESIAN_POINT('Origin',(-353.604600328337,159.580789289516,-7.99999999999997));
#753=CARTESIAN_POINT('',(-353.604600328337,163.080789289516,0.));
#754=CARTESIAN_POINT('Origin',(-353.604600328337,159.580789289516,0.));
#755=CARTESIAN_POINT('',(-353.604600328337,163.080789289516,22.0000000000001));
#756=CARTESIAN_POINT('',(-353.604600328337,163.080789289516,-7.99999999999997));
#757=CARTESIAN_POINT('Origin',(-353.604600328337,159.580789289516,22.0000000000001));
#758=CARTESIAN_POINT('Origin',(-318.604600328337,194.580789289516,22.0000000000001));
#759=CARTESIAN_POINT('Origin',(-283.604600328337,229.580789289516,-7.99999999999997));
#760=CARTESIAN_POINT('',(-283.604600328337,233.080789289516,0.));
#761=CARTESIAN_POINT('Origin',(-283.604600328337,229.580789289516,0.));
#762=CARTESIAN_POINT('',(-283.604600328337,233.080789289516,22.0000000000001));
#763=CARTESIAN_POINT('',(-283.604600328337,233.080789289516,-7.99999999999997));
#764=CARTESIAN_POINT('Origin',(-283.604600328337,229.580789289516,22.0000000000001));
#765=CARTESIAN_POINT('Origin',(-318.604600328337,194.580789289516,22.0000000000001));
#766=CARTESIAN_POINT('Origin',(-283.604600328337,159.580789289516,-7.99999999999997));
#767=CARTESIAN_POINT('',(-283.604600328337,163.080789289516,0.));
#768=CARTESIAN_POINT('Origin',(-283.604600328337,159.580789289516,0.));
#769=CARTESIAN_POINT('',(-283.604600328337,163.080789289516,22.0000000000001));
#770=CARTESIAN_POINT('',(-283.604600328337,163.080789289516,-7.99999999999997));
#771=CARTESIAN_POINT('Origin',(-283.604600328337,159.580789289516,22.0000000000001));
#772=CARTESIAN_POINT('Origin',(-318.604600328337,194.580789289516,22.0000000000001));
#773=CARTESIAN_POINT('Origin',(-318.604600328338,194.580789289516,12.5));
#774=CARTESIAN_POINT('',(-318.604600328338,213.080789289516,12.5));
#775=CARTESIAN_POINT('Origin',(-318.604600328338,194.580789289516,12.5));
#776=CARTESIAN_POINT('',(-318.604600328338,202.080789289516,12.5));
#777=CARTESIAN_POINT('Origin',(-318.604600328338,194.580789289516,12.5));
#778=CARTESIAN_POINT('Origin',(-318.604600328338,194.580789289516,11.5));
#779=CARTESIAN_POINT('',(-318.604600328338,202.080789289516,19.7710059631452));
#780=CARTESIAN_POINT('',(-318.604600328338,202.080789289516,11.5));
#781=CARTESIAN_POINT('Origin',(-318.604600328338,194.580789289516,19.7710059631452));
#782=CARTESIAN_POINT('Origin',(-353.959939387665,159.225450230188,92.720787139377));
#783=CARTESIAN_POINT('',(-353.959939387665,155.725450230188,82.721));
#784=CARTESIAN_POINT('Origin',(-353.959939387665,159.225450230188,82.721));
#785=CARTESIAN_POINT('',(-353.959939387665,155.725450230188,57.720787139377));
#786=CARTESIAN_POINT('',(-353.959939387665,155.725450230188,92.720787139377));
#787=CARTESIAN_POINT('Origin',(-353.959939387665,159.225450230188,57.720787139377));
#788=CARTESIAN_POINT('Origin',(-318.604600328337,194.580789289516,57.720787139377));
#789=CARTESIAN_POINT('Origin',(-283.24926126901,229.936128348843,92.720787139377));
#790=CARTESIAN_POINT('',(-283.24926126901,226.436128348843,82.721));
#791=CARTESIAN_POINT('Origin',(-283.24926126901,229.936128348843,82.721));
#792=CARTESIAN_POINT('',(-283.24926126901,226.436128348843,57.720787139377));
#793=CARTESIAN_POINT('',(-283.24926126901,226.436128348843,92.720787139377));
#794=CARTESIAN_POINT('Origin',(-283.24926126901,229.936128348843,57.720787139377));
#795=CARTESIAN_POINT('Origin',(-318.604600328337,194.580789289516,57.720787139377));
#796=CARTESIAN_POINT('Origin',(-353.959939387665,229.936128348843,92.720787139377));
#797=CARTESIAN_POINT('',(-353.959939387665,226.436128348843,82.721));
#798=CARTESIAN_POINT('Origin',(-353.959939387665,229.936128348843,82.721));
#799=CARTESIAN_POINT('',(-353.959939387665,226.436128348843,57.720787139377));
#800=CARTESIAN_POINT('',(-353.959939387665,226.436128348843,92.720787139377));
#801=CARTESIAN_POINT('Origin',(-353.959939387665,229.936128348843,57.720787139377));
#802=CARTESIAN_POINT('Origin',(-318.604600328337,194.580789289516,57.720787139377));
#803=CARTESIAN_POINT('Origin',(-283.24926126901,159.225450230188,92.720787139377));
#804=CARTESIAN_POINT('',(-283.24926126901,155.725450230188,82.721));
#805=CARTESIAN_POINT('Origin',(-283.24926126901,159.225450230188,82.721));
#806=CARTESIAN_POINT('',(-283.24926126901,155.725450230188,57.720787139377));
#807=CARTESIAN_POINT('',(-283.24926126901,155.725450230188,92.720787139377));
#808=CARTESIAN_POINT('Origin',(-283.24926126901,159.225450230188,57.720787139377));
#809=CARTESIAN_POINT('Origin',(-318.604600328337,194.580789289516,57.720787139377));
#810=CARTESIAN_POINT('Origin',(-310.604600328338,194.580789289516,69.9307979365429));
#811=CARTESIAN_POINT('',(-294.104600328338,237.580789289516,69.9307979365429));
#812=CARTESIAN_POINT('Origin',(-300.604600328338,194.580789289516,19.9307979365429));
#813=CARTESIAN_POINT('',(-288.104600328338,237.580789289516,19.9307979365429));
#814=CARTESIAN_POINT('Origin',(-318.604600328338,194.580789289516,19.7710059631452));
#815=CARTESIAN_POINT('Origin',(-318.604600328338,194.580789289516,0.));
#816=CARTESIAN_POINT('',(-318.604600328338,213.080789289516,0.));
#817=CARTESIAN_POINT('Origin',(-318.604600328338,194.580789289516,0.));
#818=CARTESIAN_POINT('',(-318.604600328338,213.080789289516,0.));
#819=CARTESIAN_POINT('Origin',(-318.604600328338,194.580789289516,81.2710059631452));
#820=CARTESIAN_POINT('',(-318.604600328338,158.005789289516,81.271));
#821=CARTESIAN_POINT('Origin',(-318.604600328338,194.580789289516,81.271));
#822=CARTESIAN_POINT('Origin',(-318.604600328338,194.580789289516,96.));
#823=CARTESIAN_POINT('',(-318.604600328338,158.005789289516,82.721));
#824=CARTESIAN_POINT('Origin',(-318.604600328338,194.580789289516,82.721));
#825=CARTESIAN_POINT('',(-318.604600328338,158.005789289516,96.));
#826=CARTESIAN_POINT('Origin',(-1.55431223447522E-14,7.7715611723761E-15,
82.721));
#827=CARTESIAN_POINT('',(-361.604600328338,237.580789289516,82.721));
#828=CARTESIAN_POINT('',(-275.604600328338,237.580789289516,82.721));
#829=CARTESIAN_POINT('',(-137.802300164169,237.580789289516,82.721));
#830=CARTESIAN_POINT('',(-361.604600328338,151.580789289516,82.721));
#831=CARTESIAN_POINT('',(-361.604600328338,118.790394644758,82.721));
#832=CARTESIAN_POINT('',(-275.604600328338,151.580789289516,82.721));
#833=CARTESIAN_POINT('',(-180.802300164169,151.580789289516,82.721));
#834=CARTESIAN_POINT('',(-275.604600328338,75.7903946447578,82.721));
#835=CARTESIAN_POINT('Origin',(-275.604600328338,151.580789289516,76.));
#836=CARTESIAN_POINT('',(-275.604600328338,151.580789289516,0.));
#837=CARTESIAN_POINT('',(-275.604600328338,151.580789289516,76.));
#838=CARTESIAN_POINT('',(-275.604600328338,237.580789289516,0.));
#839=CARTESIAN_POINT('',(-275.604600328338,151.580789289516,0.));
#840=CARTESIAN_POINT('',(-275.604600328338,237.580789289516,76.));
#841=CARTESIAN_POINT('Origin',(-361.604600328338,151.580789289516,76.));
#842=CARTESIAN_POINT('',(-361.604600328338,151.580789289516,0.));
#843=CARTESIAN_POINT('',(-361.604600328338,151.580789289516,76.));
#844=CARTESIAN_POINT('',(-361.604600328338,151.580789289516,0.));
#845=CARTESIAN_POINT('Origin',(-275.604600328338,237.580789289516,76.));
#846=CARTESIAN_POINT('',(-361.604600328338,237.580789289516,0.));
#847=CARTESIAN_POINT('',(-275.604600328338,237.580789289516,0.));
#848=CARTESIAN_POINT('',(-361.604600328338,237.580789289516,76.));
#849=CARTESIAN_POINT('Origin',(-361.604600328338,237.580789289516,76.));
#850=CARTESIAN_POINT('',(-361.604600328338,237.580789289516,0.));
#851=CARTESIAN_POINT('Origin',(0.,0.,0.));
#852=UNCERTAINTY_MEASURE_WITH_UNIT(LENGTH_MEASURE(0.01),#856,
'DISTANCE_ACCURACY_VALUE',
'Maximum model space distance between geometric entities at asserted c
onnectivities');
#853=UNCERTAINTY_MEASURE_WITH_UNIT(LENGTH_MEASURE(0.01),#856,
'DISTANCE_ACCURACY_VALUE',
'Maximum model space distance between geometric entities at asserted c
onnectivities');
#854=(
GEOMETRIC_REPRESENTATION_CONTEXT(3)
GLOBAL_UNCERTAINTY_ASSIGNED_CONTEXT((#852))
GLOBAL_UNIT_ASSIGNED_CONTEXT((#856,#858,#859))
REPRESENTATION_CONTEXT('','3D')
);
#855=(
GEOMETRIC_REPRESENTATION_CONTEXT(3)
GLOBAL_UNCERTAINTY_ASSIGNED_CONTEXT((#853))
GLOBAL_UNIT_ASSIGNED_CONTEXT((#856,#858,#859))
REPRESENTATION_CONTEXT('','3D')
);
#856=(
LENGTH_UNIT()
NAMED_UNIT(*)
SI_UNIT(.MILLI.,.METRE.)
);
#857=(
LENGTH_UNIT()
NAMED_UNIT(*)
SI_UNIT($,.METRE.)
);
#858=(
NAMED_UNIT(*)
PLANE_ANGLE_UNIT()
SI_UNIT($,.RADIAN.)
);
#859=(
NAMED_UNIT(*)
SI_UNIT($,.STERADIAN.)
SOLID_ANGLE_UNIT()
);
#860=SHAPE_DEFINITION_REPRESENTATION(#861,#862);
#861=PRODUCT_DEFINITION_SHAPE('',$,#864);
#862=SHAPE_REPRESENTATION('',(#504),#854);
#863=PRODUCT_DEFINITION_CONTEXT('part definition',#868,'design');
#864=PRODUCT_DEFINITION('Housing','Housing',#865,#863);
#865=PRODUCT_DEFINITION_FORMATION('',$,#870);
#866=PRODUCT_RELATED_PRODUCT_CATEGORY('Housing','Housing',(#870));
#867=APPLICATION_PROTOCOL_DEFINITION('international standard',
'automotive_design',2009,#868);
#868=APPLICATION_CONTEXT(
'Core Data for Automotive Mechanical Design Process');
#869=PRODUCT_CONTEXT('part definition',#868,'mechanical');
#870=PRODUCT('Housing','Housing',$,(#869));
#871=PRESENTATION_STYLE_ASSIGNMENT((#872));
#872=SURFACE_STYLE_USAGE(.BOTH.,#873);
#873=SURFACE_SIDE_STYLE('',(#874));
#874=SURFACE_STYLE_FILL_AREA(#875);
#875=FILL_AREA_STYLE('Steel - Satin',(#876));
#876=FILL_AREA_STYLE_COLOUR('Steel - Satin',#877);
#877=COLOUR_RGB('Steel - Satin',0.627450980392157,0.627450980392157,0.627450980392157);
ENDSEC;
END-ISO-10303-21;
